<svg xmlns="http://www.w3.org/2000/svg" width="16" height="12" viewBox="0 0 16 12">
    <path fill="#A1A4B2" fill-rule="nonzero" d="M12.302 1.826V.564l3.553 2.104-3.553 2.104V3.51h-.669c-1.994 0-3.623 1.049-4.942 3.206-1.349 2.333-3.296 3.528-5.758 3.528h-.71V8.56h.71c1.997 0 3.504-.925 4.597-2.814 1.59-2.6 3.639-3.92 6.103-3.92h.669zm0 6.734V7.298l3.553 2.104-3.553 2.104v-1.262h-.669c-1.958 0-3.653-.833-5.065-2.48a9.57 9.57 0 0 1 .902-1.309C8.637 7.87 10.015 8.56 11.633 8.56h.669zM5.95 4.262c-.143.204-.284.419-.42.643-.147.254-.302.49-.464.71C4.023 4.202 2.661 3.51.933 3.51h-.71V1.826h.71c2.042 0 3.731.823 5.017 2.436z"/>
</svg>
