<svg xmlns="http://www.w3.org/2000/svg" width="17" height="12" viewBox="0 0 17 12">
    <path fill="#A1A4B2" fill-rule="nonzero" d="M2.224 1.218a.92.92 0 0 1 1.3.003.92.92 0 0 1 .004 1.3c-2.148 2.15-2.139 5.643.022 7.803a.92.92 0 0 1 .004 1.3.92.92 0 0 1-1.3-.003c-2.882-2.88-2.895-7.538-.03-10.403zm2.52 1.838a.92.92 0 0 1 1.301.004.92.92 0 0 1 .004 1.3 2.759 2.759 0 0 0 .01 3.902.92.92 0 0 1 .004 1.3.92.92 0 0 1-1.3-.003c-1.8-1.8-1.809-4.712-.018-6.503zm9.814 8.569a.92.92 0 0 1-1.3-.004.92.92 0 0 1-.004-1.3c2.148-2.149 2.139-5.642-.022-7.803a.92.92 0 0 1-.004-1.3.92.92 0 0 1 1.3.003c2.882 2.881 2.895 7.539.03 10.404zm-2.534-2.063a.92.92 0 0 1-1.3-.003.92.92 0 0 1-.004-1.3 2.759 2.759 0 0 0-.011-3.902.92.92 0 0 1-.004-1.3.92.92 0 0 1 1.3.003c1.801 1.8 1.81 4.712.019 6.502zM8.39 8.312a1.84 1.84 0 0 1-1.834-1.844 1.84 1.84 0 0 1 1.834-1.845 1.84 1.84 0 0 1 1.834 1.845 1.84 1.84 0 0 1-1.834 1.844z"/>
</svg>
